<mxfile host="app.diagrams.net" agent="Mozilla/5.0 (Macintosh; Intel Mac OS X 10_15_7) AppleWebKit/537.36 (KHTML, like Gecko) Chrome/131.0.0.0 Safari/537.36" version="26.0.2">
  <diagram name="Page-1" id="Q-TzMP57dKPgxBlJDPfX">
    <mxGraphModel dx="3336" dy="1430" grid="1" gridSize="10" guides="1" tooltips="1" connect="1" arrows="1" fold="1" page="1" pageScale="1" pageWidth="850" pageHeight="1100" math="0" shadow="0">
      <root>
        <mxCell id="0" />
        <mxCell id="1" parent="0" />
        <mxCell id="XpQHc-YMDH5aCk1nWTeP-1" value="" style="rounded=0;whiteSpace=wrap;html=1;strokeColor=none;fillColor=light-dark(#000019,#DEDEFF);fillStyle=auto;gradientColor=default;gradientDirection=north;opacity=90;" vertex="1" parent="1">
          <mxGeometry x="-80" y="170" width="1560" height="1000" as="geometry" />
        </mxCell>
        <mxCell id="XpQHc-YMDH5aCk1nWTeP-3" value="" style="ellipse;whiteSpace=wrap;html=1;aspect=fixed;strokeColor=#FFFFFF;fillColor=none;strokeWidth=3;sketch=1;curveFitting=1;jiggle=2;opacity=40;" vertex="1" parent="1">
          <mxGeometry x="191" y="347" width="80" height="80" as="geometry" />
        </mxCell>
        <mxCell id="XpQHc-YMDH5aCk1nWTeP-30" value="" style="group;opacity=40;" vertex="1" connectable="0" parent="1">
          <mxGeometry x="120.99999999999909" y="265" width="1169.000000000001" height="830" as="geometry" />
        </mxCell>
        <mxCell id="XpQHc-YMDH5aCk1nWTeP-25" value="" style="endArrow=classic;html=1;rounded=0;strokeWidth=1;strokeColor=#FFFFFF;curved=1;elbow=horizontal;endSize=20;flowAnimation=1;shadow=0;sketch=1;curveFitting=1;jiggle=2;entryX=0.07;entryY=0.282;entryDx=0;entryDy=0;entryPerimeter=0;opacity=40;" edge="1" parent="XpQHc-YMDH5aCk1nWTeP-30" target="XpQHc-YMDH5aCk1nWTeP-38">
          <mxGeometry width="50" height="50" relative="1" as="geometry">
            <mxPoint x="9.094947017729282e-13" y="420" as="sourcePoint" />
            <mxPoint x="570.0000000000009" y="40" as="targetPoint" />
            <Array as="points">
              <mxPoint x="89.00000000000091" y="-135" />
            </Array>
          </mxGeometry>
        </mxCell>
        <mxCell id="XpQHc-YMDH5aCk1nWTeP-26" value="" style="endArrow=classic;html=1;rounded=0;strokeWidth=2;strokeColor=#FFFFFF;curved=1;elbow=horizontal;endSize=12;flowAnimation=1;shadow=0;sketch=1;curveFitting=1;jiggle=2;opacity=40;" edge="1" parent="XpQHc-YMDH5aCk1nWTeP-30">
          <mxGeometry width="50" height="50" relative="1" as="geometry">
            <mxPoint x="1130.000000000001" y="410" as="sourcePoint" />
            <mxPoint x="499.0000000000009" y="795" as="targetPoint" />
            <Array as="points">
              <mxPoint x="1060.000000000001" y="830" />
            </Array>
          </mxGeometry>
        </mxCell>
        <mxCell id="XpQHc-YMDH5aCk1nWTeP-27" value="" style="endArrow=classic;html=1;rounded=0;entryX=0.463;entryY=-0.004;entryDx=0;entryDy=0;strokeWidth=2;strokeColor=#FFFFFF;curved=1;entryPerimeter=0;elbow=horizontal;endSize=6;flowAnimation=1;shadow=0;sketch=1;curveFitting=1;jiggle=2;opacity=40;" edge="1" parent="XpQHc-YMDH5aCk1nWTeP-30">
          <mxGeometry width="50" height="50" relative="1" as="geometry">
            <mxPoint x="599.0000000000009" y="795" as="sourcePoint" />
            <mxPoint y="409.9999999999998" as="targetPoint" />
            <Array as="points">
              <mxPoint x="80.00000000000091" y="820" />
            </Array>
          </mxGeometry>
        </mxCell>
        <mxCell id="XpQHc-YMDH5aCk1nWTeP-28" value="" style="endArrow=classic;html=1;rounded=0;strokeWidth=1;strokeColor=#FFFFFF;curved=1;elbow=horizontal;endSize=6;flowAnimation=1;shadow=0;sketch=1;curveFitting=1;jiggle=2;opacity=40;" edge="1" parent="XpQHc-YMDH5aCk1nWTeP-30">
          <mxGeometry width="50" height="50" relative="1" as="geometry">
            <mxPoint x="319.0000000000009" y="55" as="sourcePoint" />
            <mxPoint x="1130.000000000001" y="420" as="targetPoint" />
            <Array as="points">
              <mxPoint x="1089.000000000001" y="-25" />
            </Array>
          </mxGeometry>
        </mxCell>
        <mxCell id="XpQHc-YMDH5aCk1nWTeP-31" value="" style="group;strokeWidth=1;flipH=0;flipV=1;opacity=40;" vertex="1" connectable="0" parent="1">
          <mxGeometry x="134.9999999999991" y="270" width="1130.000000000001" height="890" as="geometry" />
        </mxCell>
        <mxCell id="XpQHc-YMDH5aCk1nWTeP-7" value="" style="endArrow=classic;html=1;rounded=0;strokeWidth=1;strokeColor=#FFFFFF;curved=1;elbow=horizontal;endSize=15;flowAnimation=1;shadow=0;sketch=1;curveFitting=1;jiggle=2;opacity=40;" edge="1" parent="XpQHc-YMDH5aCk1nWTeP-31">
          <mxGeometry width="50" height="50" relative="1" as="geometry">
            <mxPoint x="9.094947017729282e-13" y="410" as="sourcePoint" />
            <mxPoint x="705.0000000000009" y="780" as="targetPoint" />
            <Array as="points">
              <mxPoint x="85.00000000000091" y="880" />
            </Array>
          </mxGeometry>
        </mxCell>
        <mxCell id="XpQHc-YMDH5aCk1nWTeP-21" value="" style="endArrow=classic;html=1;rounded=0;strokeWidth=1;strokeColor=#FFFFFF;curved=1;elbow=horizontal;endSize=23;flowAnimation=1;shadow=0;sketch=1;curveFitting=1;jiggle=2;opacity=40;" edge="1" parent="XpQHc-YMDH5aCk1nWTeP-31">
          <mxGeometry width="50" height="50" relative="1" as="geometry">
            <mxPoint x="1130.000000000001" y="420" as="sourcePoint" />
            <mxPoint x="520.0000000000009" y="50" as="targetPoint" />
            <Array as="points">
              <mxPoint x="1060.000000000001" />
            </Array>
          </mxGeometry>
        </mxCell>
        <mxCell id="XpQHc-YMDH5aCk1nWTeP-22" value="" style="endArrow=classic;html=1;rounded=0;entryX=0.369;entryY=0.006;entryDx=0;entryDy=0;strokeWidth=1;strokeColor=#FFFFFF;curved=1;entryPerimeter=0;elbow=horizontal;endSize=16;flowAnimation=1;shadow=0;sketch=1;curveFitting=1;jiggle=2;startSize=11;opacity=40;" edge="1" parent="XpQHc-YMDH5aCk1nWTeP-31" target="XpQHc-YMDH5aCk1nWTeP-46">
          <mxGeometry width="50" height="50" relative="1" as="geometry">
            <mxPoint x="570.0000000000009" y="50" as="sourcePoint" />
            <mxPoint y="420.0000000000002" as="targetPoint" />
            <Array as="points">
              <mxPoint x="-84.99999999999909" y="-20" />
            </Array>
          </mxGeometry>
        </mxCell>
        <mxCell id="XpQHc-YMDH5aCk1nWTeP-24" value="" style="endArrow=classic;html=1;rounded=0;strokeWidth=1;strokeColor=#FFFFFF;curved=1;elbow=horizontal;endSize=16;flowAnimation=1;shadow=0;sketch=1;curveFitting=1;jiggle=2;opacity=40;" edge="1" parent="XpQHc-YMDH5aCk1nWTeP-31">
          <mxGeometry width="50" height="50" relative="1" as="geometry">
            <mxPoint x="481.0000000000009" y="795" as="sourcePoint" />
            <mxPoint x="1130.000000000001" y="410" as="targetPoint" />
            <Array as="points">
              <mxPoint x="1029.6800000000003" y="820" />
            </Array>
          </mxGeometry>
        </mxCell>
        <mxCell id="XpQHc-YMDH5aCk1nWTeP-52" value="" style="ellipse;whiteSpace=wrap;html=1;aspect=fixed;strokeColor=#FFFFFF;fillColor=none;strokeWidth=3;sketch=1;curveFitting=1;jiggle=2;opacity=40;" vertex="1" parent="XpQHc-YMDH5aCk1nWTeP-31">
          <mxGeometry x="15.00000000000091" y="820" width="80" height="80" as="geometry" />
        </mxCell>
        <mxCell id="XpQHc-YMDH5aCk1nWTeP-68" value="" style="ellipse;whiteSpace=wrap;html=1;aspect=fixed;strokeColor=#FFFFFF;fillColor=none;strokeWidth=3;sketch=1;curveFitting=1;jiggle=2;opacity=40;" vertex="1" parent="XpQHc-YMDH5aCk1nWTeP-31">
          <mxGeometry x="455" y="780" width="30" height="30" as="geometry" />
        </mxCell>
        <mxCell id="XpQHc-YMDH5aCk1nWTeP-32" value="" style="group;strokeWidth=1;flipH=0;flipV=1;opacity=40;" vertex="1" connectable="0" parent="1">
          <mxGeometry x="109.99999999999909" y="260" width="1130.000000000001" height="830" as="geometry" />
        </mxCell>
        <mxCell id="XpQHc-YMDH5aCk1nWTeP-33" value="" style="endArrow=classic;html=1;rounded=0;strokeWidth=1;strokeColor=#FFFFFF;curved=1;elbow=horizontal;endSize=15;flowAnimation=1;shadow=0;sketch=1;curveFitting=1;jiggle=2;entryX=0;entryY=0.5;entryDx=0;entryDy=0;opacity=40;" edge="1" parent="XpQHc-YMDH5aCk1nWTeP-32" target="XpQHc-YMDH5aCk1nWTeP-68">
          <mxGeometry width="50" height="50" relative="1" as="geometry">
            <mxPoint x="140.0000000000009" y="155" as="sourcePoint" />
            <mxPoint x="570.0000000000009" y="790" as="targetPoint" />
            <Array as="points">
              <mxPoint x="-29.99999999999909" y="330" />
              <mxPoint x="170.0000000000009" y="790" />
            </Array>
          </mxGeometry>
        </mxCell>
        <mxCell id="XpQHc-YMDH5aCk1nWTeP-34" value="" style="endArrow=classic;html=1;rounded=0;strokeWidth=1;strokeColor=#FFFFFF;curved=1;elbow=horizontal;endSize=15;flowAnimation=1;shadow=0;sketch=1;curveFitting=1;jiggle=2;opacity=40;" edge="1" parent="XpQHc-YMDH5aCk1nWTeP-32">
          <mxGeometry width="50" height="50" relative="1" as="geometry">
            <mxPoint x="1070.000000000001" y="590" as="sourcePoint" />
            <mxPoint x="370.0000000000009" y="50" as="targetPoint" />
            <Array as="points">
              <mxPoint x="1170.000000000001" y="410" />
              <mxPoint x="970.0000000000009" y="40" />
            </Array>
          </mxGeometry>
        </mxCell>
        <mxCell id="XpQHc-YMDH5aCk1nWTeP-35" value="" style="endArrow=classic;html=1;rounded=0;strokeWidth=1;strokeColor=#FFFFFF;curved=1;elbow=horizontal;endSize=20;flowAnimation=1;shadow=0;sketch=1;curveFitting=1;jiggle=2;entryX=0;entryY=0.5;entryDx=0;entryDy=0;opacity=40;" edge="1" parent="XpQHc-YMDH5aCk1nWTeP-32" target="XpQHc-YMDH5aCk1nWTeP-69">
          <mxGeometry width="50" height="50" relative="1" as="geometry">
            <mxPoint x="790.0000000000009" y="70" as="sourcePoint" />
            <mxPoint x="210.0000000000009" y="730" as="targetPoint" />
            <Array as="points">
              <mxPoint x="280.0000000000009" y="30" />
              <mxPoint x="80.00000000000091" y="180" />
              <mxPoint x="10.00000000000091" y="440" />
              <mxPoint x="70.00000000000091" y="620" />
            </Array>
          </mxGeometry>
        </mxCell>
        <mxCell id="XpQHc-YMDH5aCk1nWTeP-36" value="" style="endArrow=classic;html=1;rounded=0;strokeWidth=2;strokeColor=#FFFFFF;curved=1;elbow=horizontal;endSize=22;flowAnimation=1;shadow=0;sketch=1;curveFitting=1;jiggle=2;exitX=1;exitY=0.5;exitDx=0;exitDy=0;opacity=40;" edge="1" parent="XpQHc-YMDH5aCk1nWTeP-32" source="XpQHc-YMDH5aCk1nWTeP-68">
          <mxGeometry width="50" height="50" relative="1" as="geometry">
            <mxPoint x="560.0000000000009" y="790" as="sourcePoint" />
            <mxPoint x="1070.000000000001" y="580" as="targetPoint" />
            <Array as="points">
              <mxPoint x="980.0000000000009" y="790" />
            </Array>
          </mxGeometry>
        </mxCell>
        <mxCell id="XpQHc-YMDH5aCk1nWTeP-50" value="" style="ellipse;whiteSpace=wrap;html=1;aspect=fixed;strokeColor=#FFFFFF;fillColor=none;strokeWidth=3;sketch=1;curveFitting=1;jiggle=2;opacity=40;" vertex="1" parent="XpQHc-YMDH5aCk1nWTeP-32">
          <mxGeometry x="680.0000000000009" y="-10" width="20" height="20" as="geometry" />
        </mxCell>
        <mxCell id="XpQHc-YMDH5aCk1nWTeP-60" value="" style="endArrow=classic;html=1;rounded=0;exitX=0;exitY=0.5;exitDx=0;exitDy=0;entryX=1;entryY=1;entryDx=0;entryDy=0;sketch=1;curveFitting=1;jiggle=2;strokeColor=#FFFFFF;strokeWidth=5;endSize=10;opacity=40;" edge="1" parent="XpQHc-YMDH5aCk1nWTeP-32" source="XpQHc-YMDH5aCk1nWTeP-37">
          <mxGeometry width="50" height="50" relative="1" as="geometry">
            <mxPoint x="919.0000000000009" y="339" as="sourcePoint" />
            <mxPoint x="700.0000000000009" as="targetPoint" />
          </mxGeometry>
        </mxCell>
        <mxCell id="XpQHc-YMDH5aCk1nWTeP-69" value="" style="ellipse;whiteSpace=wrap;html=1;aspect=fixed;strokeColor=#FFFFFF;fillColor=none;strokeWidth=3;sketch=1;curveFitting=1;jiggle=2;opacity=40;" vertex="1" parent="XpQHc-YMDH5aCk1nWTeP-32">
          <mxGeometry x="250" y="728" width="30" height="30" as="geometry" />
        </mxCell>
        <mxCell id="XpQHc-YMDH5aCk1nWTeP-37" value="" style="ellipse;whiteSpace=wrap;html=1;aspect=fixed;strokeColor=#FFFFFF;fillColor=none;strokeWidth=3;sketch=1;curveFitting=1;jiggle=2;opacity=40;" vertex="1" parent="1">
          <mxGeometry x="1110" y="200" width="50" height="50" as="geometry" />
        </mxCell>
        <mxCell id="XpQHc-YMDH5aCk1nWTeP-38" value="" style="ellipse;whiteSpace=wrap;html=1;aspect=fixed;strokeColor=#FFFFFF;fillColor=none;strokeWidth=3;sketch=1;curveFitting=1;jiggle=2;opacity=40;" vertex="1" parent="1">
          <mxGeometry x="1057" y="357" width="110" height="110" as="geometry" />
        </mxCell>
        <mxCell id="XpQHc-YMDH5aCk1nWTeP-44" value="" style="group;opacity=40;" vertex="1" connectable="0" parent="1">
          <mxGeometry x="1397" y="620" width="90" height="80" as="geometry" />
        </mxCell>
        <mxCell id="XpQHc-YMDH5aCk1nWTeP-41" value="" style="ellipse;whiteSpace=wrap;html=1;aspect=fixed;strokeColor=#FFFFFF;fillColor=none;strokeWidth=3;sketch=1;curveFitting=1;jiggle=2;opacity=40;" vertex="1" parent="XpQHc-YMDH5aCk1nWTeP-44">
          <mxGeometry width="80" height="80" as="geometry" />
        </mxCell>
        <mxCell id="XpQHc-YMDH5aCk1nWTeP-43" value="" style="ellipse;whiteSpace=wrap;html=1;aspect=fixed;strokeColor=#FFFFFF;fillColor=none;strokeWidth=2;sketch=1;curveFitting=1;jiggle=2;opacity=40;" vertex="1" parent="XpQHc-YMDH5aCk1nWTeP-44">
          <mxGeometry x="10" y="9" width="61" height="61" as="geometry" />
        </mxCell>
        <mxCell id="XpQHc-YMDH5aCk1nWTeP-45" value="" style="group;opacity=40;" vertex="1" connectable="0" parent="1">
          <mxGeometry x="120" y="800" width="130" height="120" as="geometry" />
        </mxCell>
        <mxCell id="XpQHc-YMDH5aCk1nWTeP-46" value="" style="ellipse;whiteSpace=wrap;html=1;aspect=fixed;strokeColor=#FFFFFF;fillColor=none;strokeWidth=3;sketch=1;curveFitting=1;jiggle=2;opacity=40;" vertex="1" parent="XpQHc-YMDH5aCk1nWTeP-45">
          <mxGeometry width="120" height="120" as="geometry" />
        </mxCell>
        <mxCell id="XpQHc-YMDH5aCk1nWTeP-47" value="" style="ellipse;whiteSpace=wrap;html=1;aspect=fixed;strokeColor=#FFFFFF;fillColor=none;strokeWidth=3;sketch=1;curveFitting=1;jiggle=2;opacity=40;" vertex="1" parent="XpQHc-YMDH5aCk1nWTeP-45">
          <mxGeometry x="30" y="26.25" width="48.75" height="48.75" as="geometry" />
        </mxCell>
        <mxCell id="XpQHc-YMDH5aCk1nWTeP-74" value="" style="ellipse;whiteSpace=wrap;html=1;aspect=fixed;strokeColor=#FFFFFF;fillColor=none;strokeWidth=3;sketch=1;curveFitting=1;jiggle=2;opacity=40;" vertex="1" parent="XpQHc-YMDH5aCk1nWTeP-45">
          <mxGeometry x="11.38" y="10.63" width="99.37" height="99.37" as="geometry" />
        </mxCell>
        <mxCell id="XpQHc-YMDH5aCk1nWTeP-48" value="" style="group;opacity=40;" vertex="1" connectable="0" parent="1">
          <mxGeometry x="1320" y="230" width="80" height="80" as="geometry" />
        </mxCell>
        <mxCell id="XpQHc-YMDH5aCk1nWTeP-49" value="" style="ellipse;whiteSpace=wrap;html=1;aspect=fixed;strokeColor=#FFFFFF;fillColor=none;strokeWidth=3;sketch=1;curveFitting=1;jiggle=2;opacity=40;" vertex="1" parent="XpQHc-YMDH5aCk1nWTeP-48">
          <mxGeometry width="80" height="80" as="geometry" />
        </mxCell>
        <mxCell id="XpQHc-YMDH5aCk1nWTeP-51" value="" style="ellipse;whiteSpace=wrap;html=1;aspect=fixed;strokeColor=#FFFFFF;fillColor=none;strokeWidth=3;sketch=1;curveFitting=1;jiggle=2;opacity=40;" vertex="1" parent="1">
          <mxGeometry x="-110" y="940" width="80" height="80" as="geometry" />
        </mxCell>
        <mxCell id="XpQHc-YMDH5aCk1nWTeP-53" value="" style="ellipse;whiteSpace=wrap;html=1;aspect=fixed;strokeColor=#FFFFFF;fillColor=none;strokeWidth=3;sketch=1;curveFitting=1;jiggle=2;opacity=40;" vertex="1" parent="1">
          <mxGeometry x="-30" y="170" width="40" height="40" as="geometry" />
        </mxCell>
        <mxCell id="XpQHc-YMDH5aCk1nWTeP-54" value="" style="endArrow=classic;html=1;rounded=0;exitX=0.5;exitY=1;exitDx=0;exitDy=0;entryX=0.5;entryY=0;entryDx=0;entryDy=0;sketch=1;curveFitting=1;jiggle=2;strokeColor=#FFFFFF;strokeWidth=5;endSize=10;opacity=40;" edge="1" parent="1" source="XpQHc-YMDH5aCk1nWTeP-37" target="XpQHc-YMDH5aCk1nWTeP-38">
          <mxGeometry width="50" height="50" relative="1" as="geometry">
            <mxPoint x="640" y="610" as="sourcePoint" />
            <mxPoint x="690" y="560" as="targetPoint" />
          </mxGeometry>
        </mxCell>
        <mxCell id="XpQHc-YMDH5aCk1nWTeP-56" value="" style="endArrow=classic;html=1;rounded=0;exitX=1;exitY=0.5;exitDx=0;exitDy=0;entryX=0;entryY=0;entryDx=0;entryDy=0;sketch=1;curveFitting=1;jiggle=2;strokeColor=#FFFFFF;strokeWidth=5;endSize=10;opacity=40;" edge="1" parent="1" source="XpQHc-YMDH5aCk1nWTeP-37" target="XpQHc-YMDH5aCk1nWTeP-49">
          <mxGeometry width="50" height="50" relative="1" as="geometry">
            <mxPoint x="1410" y="580" as="sourcePoint" />
            <mxPoint x="1370" y="320" as="targetPoint" />
          </mxGeometry>
        </mxCell>
        <mxCell id="XpQHc-YMDH5aCk1nWTeP-57" value="" style="endArrow=classic;html=1;rounded=0;exitX=0;exitY=0;exitDx=0;exitDy=0;entryX=1;entryY=1;entryDx=0;entryDy=0;sketch=1;curveFitting=1;jiggle=2;strokeColor=#FFFFFF;strokeWidth=6;endSize=10;opacity=40;" edge="1" parent="1" source="XpQHc-YMDH5aCk1nWTeP-41" target="XpQHc-YMDH5aCk1nWTeP-37">
          <mxGeometry width="50" height="50" relative="1" as="geometry">
            <mxPoint x="1420" y="590" as="sourcePoint" />
            <mxPoint x="1380" y="330" as="targetPoint" />
          </mxGeometry>
        </mxCell>
        <mxCell id="XpQHc-YMDH5aCk1nWTeP-55" value="" style="endArrow=classic;html=1;rounded=0;exitX=0.5;exitY=1;exitDx=0;exitDy=0;entryX=0.5;entryY=0;entryDx=0;entryDy=0;sketch=1;curveFitting=1;jiggle=2;strokeColor=#FFFFFF;strokeWidth=5;endSize=10;opacity=40;" edge="1" parent="1" source="XpQHc-YMDH5aCk1nWTeP-49" target="XpQHc-YMDH5aCk1nWTeP-41">
          <mxGeometry width="50" height="50" relative="1" as="geometry">
            <mxPoint x="1161" y="383" as="sourcePoint" />
            <mxPoint x="1342" y="308" as="targetPoint" />
          </mxGeometry>
        </mxCell>
        <mxCell id="XpQHc-YMDH5aCk1nWTeP-62" value="" style="endArrow=classic;html=1;rounded=0;exitX=1;exitY=1;exitDx=0;exitDy=0;entryX=0;entryY=0;entryDx=0;entryDy=0;sketch=1;curveFitting=1;jiggle=2;strokeColor=#FFFFFF;strokeWidth=5;endSize=10;opacity=40;" edge="1" parent="1" source="XpQHc-YMDH5aCk1nWTeP-53" target="XpQHc-YMDH5aCk1nWTeP-3">
          <mxGeometry width="50" height="50" relative="1" as="geometry">
            <mxPoint x="1402" y="612" as="sourcePoint" />
            <mxPoint x="1183" y="273" as="targetPoint" />
          </mxGeometry>
        </mxCell>
        <mxCell id="XpQHc-YMDH5aCk1nWTeP-63" value="" style="endArrow=classic;html=1;rounded=0;entryX=1;entryY=0;entryDx=0;entryDy=0;sketch=1;curveFitting=1;jiggle=2;strokeColor=#FFFFFF;strokeWidth=5;endSize=10;opacity=40;" edge="1" parent="1" source="XpQHc-YMDH5aCk1nWTeP-1" target="XpQHc-YMDH5aCk1nWTeP-49">
          <mxGeometry width="50" height="50" relative="1" as="geometry">
            <mxPoint x="1412" y="622" as="sourcePoint" />
            <mxPoint x="1193" y="283" as="targetPoint" />
          </mxGeometry>
        </mxCell>
        <mxCell id="XpQHc-YMDH5aCk1nWTeP-64" value="" style="endArrow=classic;html=1;rounded=0;entryX=0.067;entryY=0.678;entryDx=0;entryDy=0;sketch=1;curveFitting=1;jiggle=2;strokeColor=#FFFFFF;strokeWidth=5;exitX=1;exitY=0;exitDx=0;exitDy=0;entryPerimeter=0;endSize=10;opacity=40;" edge="1" parent="1" source="XpQHc-YMDH5aCk1nWTeP-51" target="XpQHc-YMDH5aCk1nWTeP-46">
          <mxGeometry width="50" height="50" relative="1" as="geometry">
            <mxPoint x="250" y="430" as="sourcePoint" />
            <mxPoint x="213" y="369" as="targetPoint" />
          </mxGeometry>
        </mxCell>
        <mxCell id="XpQHc-YMDH5aCk1nWTeP-65" value="" style="endArrow=classic;html=1;rounded=0;entryX=0.5;entryY=0;entryDx=0;entryDy=0;sketch=1;curveFitting=1;jiggle=2;strokeColor=#FFFFFF;strokeWidth=5;exitX=0.5;exitY=1;exitDx=0;exitDy=0;endSize=10;opacity=40;" edge="1" parent="1" source="XpQHc-YMDH5aCk1nWTeP-46" target="XpQHc-YMDH5aCk1nWTeP-52">
          <mxGeometry width="50" height="50" relative="1" as="geometry">
            <mxPoint x="-32" y="962" as="sourcePoint" />
            <mxPoint x="138" y="891" as="targetPoint" />
          </mxGeometry>
        </mxCell>
        <mxCell id="XpQHc-YMDH5aCk1nWTeP-66" value="" style="endArrow=classic;html=1;rounded=0;entryX=0;entryY=1;entryDx=0;entryDy=0;sketch=1;curveFitting=1;jiggle=2;strokeColor=#FFFFFF;strokeWidth=5;exitX=0.5;exitY=0;exitDx=0;exitDy=0;endSize=10;opacity=40;" edge="1" parent="1" source="XpQHc-YMDH5aCk1nWTeP-51" target="XpQHc-YMDH5aCk1nWTeP-53">
          <mxGeometry width="50" height="50" relative="1" as="geometry">
            <mxPoint x="-22" y="972" as="sourcePoint" />
            <mxPoint x="148" y="901" as="targetPoint" />
          </mxGeometry>
        </mxCell>
        <mxCell id="XpQHc-YMDH5aCk1nWTeP-73" value="" style="endArrow=classic;html=1;rounded=0;exitX=1;exitY=0;exitDx=0;exitDy=0;entryX=0.25;entryY=0;entryDx=0;entryDy=0;sketch=1;curveFitting=1;jiggle=2;strokeColor=#FFFFFF;strokeWidth=5;endSize=10;opacity=40;" edge="1" parent="1" source="XpQHc-YMDH5aCk1nWTeP-3" target="XpQHc-YMDH5aCk1nWTeP-1">
          <mxGeometry width="50" height="50" relative="1" as="geometry">
            <mxPoint x="14" y="214" as="sourcePoint" />
            <mxPoint x="213" y="369" as="targetPoint" />
          </mxGeometry>
        </mxCell>
      </root>
    </mxGraphModel>
  </diagram>
</mxfile>
